<?xml version="1.0" standalone="no"?>
<!DOCTYPE svg PUBLIC "-//W3C//DTD SVG 20010904//EN"
 "http://www.w3.org/TR/2001/REC-SVG-20010904/DTD/svg10.dtd">
<svg version="1.0" xmlns="http://www.w3.org/2000/svg"
 width="500.000000pt" height="500.000000pt" viewBox="0 0 500.000000 500.000000"
 preserveAspectRatio="xMidYMid meet">

<g transform="translate(0.000000,500.000000) scale(0.100000,-0.100000)"
fill="#000000" stroke="none">
<path d="M2365 3890 c-176 -32 -198 -98 -73 -224 37 -37 68 -72 68 -76 0 -4
-57 -11 -127 -15 -417 -22 -752 -100 -1048 -244 l-140 -68 -251 -10 c-222 -9
-256 -13 -300 -32 -89 -39 -234 -206 -234 -269 0 -18 10 -38 27 -54 64 -59
312 -158 398 -158 57 0 84 -16 104 -63 11 -24 32 -55 49 -68 l30 -24 16 -315
c28 -519 33 -570 57 -636 71 -189 184 -265 553 -373 298 -87 571 -130 893
-138 436 -12 821 48 1241 192 221 76 303 127 373 236 56 89 66 140 110 611 23
244 46 445 51 447 19 7 47 45 53 72 8 35 24 44 93 53 119 15 343 106 405 164
51 49 28 110 -87 231 -106 110 -132 117 -463 126 l-232 6 -93 44 c-260 122
-624 212 -1030 253 -93 9 -168 20 -168 25 0 5 27 34 61 65 67 62 90 98 91 144
1 40 -38 78 -93 89 -68 13 -279 19 -334 9z m363 -30 c17 -6 32 -18 32 -25 0
-21 -94 -30 -317 -30 -110 0 -196 -3 -190 -7 30 -19 455 -5 510 17 14 6 17 2
17 -20 0 -45 -29 -91 -91 -145 -58 -51 -59 -52 -59 -104 0 -50 3 -56 35 -80
20 -15 33 -31 30 -36 -10 -16 -149 -41 -225 -42 -48 0 -91 7 -119 18 l-42 17
35 36 c32 33 36 43 36 88 0 50 -1 52 -64 106 -74 66 -93 102 -80 155 8 33 14
38 64 54 46 15 82 17 225 14 100 -2 183 -9 203 -16z m-358 -325 c0 -28 -8 -42
-41 -72 -75 -68 -35 -114 115 -135 60 -9 87 -8 149 6 130 29 160 76 87 135
-31 25 -40 39 -40 62 l0 31 68 -7 c621 -60 1032 -178 1372 -393 19 -12 47 -15
116 -13 104 3 143 -9 189 -59 30 -32 30 -32 5 -25 -55 17 -97 25 -143 25 -31
0 -59 7 -75 18 -51 35 -55 36 -43 14 16 -30 13 -67 -6 -85 -24 -21 -173 -80
-267 -106 -260 -71 -681 -119 -1259 -142 -681 -26 -1297 58 -1619 222 -52 27
-108 78 -108 99 0 11 27 36 70 66 38 26 68 50 65 52 -3 3 -25 -9 -49 -26 -41
-30 -50 -32 -126 -32 -132 0 -162 -12 -255 -101 -75 -73 -79 -79 -63 -95 12
-12 57 -22 160 -35 79 -10 151 -19 161 -19 14 0 17 -9 17 -50 l0 -51 -52 6
c-202 23 -425 68 -495 100 -19 9 -33 22 -33 32 0 28 67 121 131 184 87 86 108
91 393 96 l240 3 71 39 c290 160 672 257 1102 280 81 4 151 9 156 10 4 0 7
-15 7 -34z m324 -152 c-41 -30 -124 -45 -218 -41 -106 6 -169 25 -174 52 -3
15 0 17 14 11 40 -17 120 -35 155 -35 44 0 198 28 219 40 23 13 26 -11 4 -27z
m1791 -167 c64 -20 133 -80 196 -169 51 -73 58 -97 36 -115 -30 -25 -317 -88
-491 -107 -52 -6 -58 -5 -52 10 3 9 6 31 6 49 l0 32 146 21 c201 29 203 31 97
133 -93 89 -122 100 -261 100 -71 0 -81 3 -132 36 l-55 35 230 -4 c171 -4 243
-9 280 -21z m-3621 -78 c-23 -41 -38 -48 -98 -48 -58 0 -99 -7 -156 -25 -25
-7 -25 -7 5 25 43 47 79 59 173 60 64 0 82 -3 76 -12z m3356 -116 c0 -34 -200
-114 -430 -172 -533 -135 -1363 -179 -1960 -104 -349 44 -718 143 -932 250
-68 34 -79 51 -59 83 7 11 17 7 50 -21 142 -121 502 -220 986 -270 160 -16
832 -17 1040 0 555 44 845 91 1065 171 123 45 163 70 174 109 l9 32 28 -30
c16 -16 29 -38 29 -48z m-3404 40 c-4 -11 1 -25 12 -35 11 -10 19 -33 20 -57
3 -38 2 -40 -25 -35 -15 2 -75 9 -133 16 -116 12 -180 26 -180 38 0 37 149 88
263 90 43 1 48 -1 43 -17z m3576 -12 c56 -17 98 -43 98 -60 0 -5 -8 -11 -17
-15 -20 -7 -286 -46 -290 -42 -9 10 13 46 33 56 28 12 30 29 9 57 -8 10 -15
23 -15 28 0 13 112 -2 182 -24z m-3269 -159 c432 -149 929 -209 1567 -190 587
18 1080 99 1398 231 40 17 75 28 78 25 7 -7 -103 -1186 -117 -1257 -16 -77
-53 -145 -115 -210 -68 -72 -113 -96 -299 -160 -400 -137 -740 -194 -1160
-194 -351 0 -643 41 -966 134 -326 94 -432 151 -509 271 -65 101 -67 116 -105
798 -19 344 -35 634 -35 643 0 14 11 12 73 -17 39 -18 125 -52 190 -74z m-460
-61 c78 -11 153 -21 167 -22 24 -3 25 -5 30 -101 3 -53 4 -97 2 -97 -19 0 -43
28 -58 65 -20 54 -45 70 -129 80 -81 10 -175 39 -272 87 -122 59 -120 69 7 37
61 -16 174 -38 253 -49z m4017 58 c-58 -49 -264 -126 -385 -143 -61 -9 -73
-18 -96 -71 -25 -60 -39 -64 -39 -12 0 24 3 66 6 93 l6 51 132 16 c72 10 190
33 261 51 72 19 132 35 135 35 3 1 -6 -8 -20 -20z"/>
<path d="M2635 3697 c-27 -27 -55 -58 -62 -70 -14 -26 -17 -106 -4 -126 6 -9
9 10 8 52 l-2 66 59 60 c72 72 72 88 1 18z"/>
<path d="M2551 3695 c-33 -38 -49 -81 -35 -95 5 -5 9 4 10 21 1 20 13 42 34
64 19 19 31 37 28 40 -3 3 -19 -10 -37 -30z"/>
<path d="M3196 3372 c5 -5 47 -17 94 -26 164 -34 420 -128 456 -167 9 -10 12
-19 6 -19 -6 0 -71 25 -145 55 -139 56 -303 108 -321 102 -6 -3 9 -10 34 -16
86 -24 221 -71 315 -111 95 -40 129 -48 140 -31 21 35 -256 151 -480 201 -102
22 -113 24 -99 12z"/>
<path d="M1114 3211 c-55 -33 -106 -66 -113 -75 -29 -35 9 -65 166 -126 111
-44 133 -48 133 -24 0 11 -6 14 -20 9 -25 -8 -71 6 -182 57 -85 40 -103 54
-90 75 4 6 54 39 112 73 115 69 118 70 104 70 -6 0 -55 -27 -110 -59z"/>
<path d="M1154 3185 c-34 -19 -67 -42 -75 -51 -12 -14 -10 -19 11 -36 33 -27
181 -101 187 -94 3 3 -19 16 -49 29 -74 33 -138 75 -138 90 0 7 33 32 73 55
39 23 68 42 62 42 -5 0 -37 -16 -71 -35z"/>
<path d="M3855 3125 c31 -25 20 -34 -17 -14 -11 6 -22 8 -25 5 -4 -3 11 -13
32 -22 28 -11 40 -12 49 -4 8 8 4 18 -17 36 -15 13 -33 24 -40 24 -7 0 2 -11
18 -25z"/>
<path d="M1340 2987 c0 -3 33 -13 73 -22 39 -10 76 -21 82 -26 14 -14 -33 -11
-95 6 -30 8 -56 12 -58 10 -3 -3 1 -6 9 -9 8 -2 29 -9 48 -15 19 -6 52 -11 73
-11 54 0 49 29 -8 46 -51 15 -124 27 -124 21z"/>
<path d="M4007 2723 c-4 -3 -7 -33 -7 -65 0 -155 -51 -640 -70 -663 -23 -28
-40 -18 -40 24 0 43 17 227 25 279 3 17 2 32 -3 32 -9 0 -30 -193 -35 -310 -2
-42 0 -45 25 -48 45 -5 55 24 77 243 23 226 44 506 38 511 -2 2 -7 1 -10 -3z"/>
<path d="M3891 2508 c-6 -56 -8 -105 -3 -110 15 -15 41 2 46 30 11 61 16 146
8 132 -5 -8 -12 -44 -16 -79 -3 -35 -8 -67 -11 -69 -14 -15 -17 18 -9 103 5
52 6 95 3 95 -3 0 -11 -46 -18 -102z"/>
<path d="M1011 2174 c0 -170 4 -327 9 -349 5 -23 6 104 3 305 -3 190 -7 347
-9 349 -2 2 -4 -135 -3 -305z"/>
<path d="M1080 2260 c0 -38 4 -59 10 -55 6 3 10 28 10 55 0 27 -4 52 -10 55
-6 4 -10 -17 -10 -55z"/>
<path d="M1081 1948 c1 -101 4 -223 8 -273 6 -67 8 -19 9 183 1 176 -2 272 -8
272 -6 0 -10 -67 -9 -182z"/>
<path d="M3170 1374 c-105 -25 -356 -63 -483 -74 -282 -22 -539 -9 -872 46
-22 4 -37 4 -34 1 6 -7 118 -29 254 -49 144 -21 657 -18 820 5 127 18 366 65
374 73 11 11 -9 10 -59 -2z"/>
<path d="M3265 1314 c-427 -109 -988 -124 -1440 -38 -71 14 -138 27 -149 31
-11 3 -16 1 -12 -5 3 -5 20 -12 38 -15 18 -4 83 -16 143 -27 363 -67 731 -74
1110 -19 133 19 392 73 403 84 13 13 -10 10 -93 -11z"/>
</g>
</svg>
