<?xml version="1.0" standalone="no"?>
<!DOCTYPE svg PUBLIC "-//W3C//DTD SVG 20010904//EN"
 "http://www.w3.org/TR/2001/REC-SVG-20010904/DTD/svg10.dtd">
<svg version="1.0" xmlns="http://www.w3.org/2000/svg"
 width="2500.000000pt" height="500.000000pt" viewBox="0 0 2500.000000 500.000000"
 preserveAspectRatio="xMidYMid meet">

<g transform="translate(0.000000,500.000000) scale(0.100000,-0.100000)"
fill="#000000" stroke="none">
<path d="M3240 4300 c-83 -13 -168 -48 -187 -76 -23 -35 -12 -106 24 -158 16
-22 56 -62 88 -89 33 -26 61 -54 63 -61 4 -17 -38 -22 -232 -31 -263 -11 -621
-70 -851 -140 -190 -58 -298 -100 -470 -185 l-160 -78 -256 -6 c-291 -7 -391
-17 -456 -46 -59 -26 -182 -146 -244 -238 -87 -130 -68 -168 135 -267 133 -66
265 -107 381 -121 33 -3 68 -11 78 -16 10 -5 32 -38 49 -74 21 -43 41 -71 64
-85 27 -17 34 -27 34 -53 0 -18 13 -270 30 -562 19 -350 35 -548 45 -586 25
-98 75 -186 149 -265 59 -63 84 -81 170 -123 306 -148 858 -280 1344 -321 288
-24 772 -3 1072 47 336 55 787 185 1005 289 84 40 179 124 234 206 78 117 86
158 146 798 32 337 58 577 64 579 26 9 52 41 68 86 10 27 25 52 33 56 8 5 47
13 85 19 120 18 245 59 381 126 145 70 184 105 184 160 0 73 -180 286 -286
339 -73 36 -162 46 -479 52 l-279 6 -56 28 c-257 129 -624 241 -1001 304 -237
40 -593 80 -611 70 -4 -3 -3 8 3 23 6 15 37 50 70 76 76 61 111 114 117 176 4
43 1 52 -25 81 -25 28 -41 35 -104 47 -93 17 -346 25 -419 13z m352 -24 c142
-18 193 -43 134 -65 -44 -17 -339 -34 -485 -28 -158 7 -190 17 -151 49 64 52
281 71 502 44z m169 -157 c-10 -35 -59 -88 -150 -167 -32 -27 -35 -35 -39 -94
l-4 -64 52 -44 c28 -24 47 -47 43 -51 -18 -18 -200 -51 -283 -51 -86 -1 -192
22 -206 44 -4 6 13 28 41 52 l48 42 -5 67 -4 68 -83 76 c-83 77 -111 119 -111
168 0 23 2 25 21 15 54 -30 549 -19 648 13 35 12 36 11 39 -13 2 -13 -1 -41
-7 -61z m-521 -282 c0 -39 -5 -48 -49 -90 -27 -26 -53 -56 -56 -68 -12 -36 19
-66 89 -88 134 -41 288 -36 400 13 93 41 98 86 16 151 -44 35 -50 44 -50 77
l0 38 53 -5 c780 -73 1259 -199 1691 -443 159 -90 196 -122 196 -171 0 -49
-16 -63 -131 -113 -286 -123 -715 -195 -1494 -250 -111 -8 -373 -13 -685 -13
-549 0 -715 11 -1051 70 -380 65 -717 182 -830 286 -62 57 -55 69 86 163 198
133 374 217 630 301 305 101 688 164 1085 178 41 2 81 4 88 5 8 1 12 -12 12
-41z m440 -164 c-1 -47 -131 -88 -275 -88 -112 0 -238 31 -249 61 -10 26 0 28
44 10 97 -39 244 -38 395 3 87 23 85 23 85 14z m-2200 -217 c0 -1 -31 -23 -68
-48 l-68 -46 -115 -1 c-172 -3 -182 -7 -307 -123 -104 -96 -109 -104 -87 -128
18 -20 70 -30 290 -56 77 -9 142 -18 144 -20 3 -3 7 -32 9 -65 4 -59 4 -60
-19 -55 -13 3 -55 8 -94 11 -176 16 -512 84 -597 122 -50 21 -50 50 -2 123 96
143 204 238 296 261 66 15 618 39 618 25z m4415 -17 c44 -6 100 -20 125 -31
86 -41 270 -255 270 -315 0 -13 -11 -30 -26 -39 -51 -34 -412 -113 -606 -132
l-78 -8 0 50 c0 28 4 56 8 62 4 6 90 22 191 37 181 26 221 39 221 72 0 12
-158 160 -201 189 -43 28 -85 35 -207 36 l-117 2 -77 45 c-43 25 -78 47 -78
50 0 9 486 -7 575 -18z m-4613 -135 c-30 -36 -31 -36 -118 -40 -49 -2 -115
-11 -147 -19 -68 -17 -67 -17 -67 -7 1 14 83 75 119 88 20 7 81 13 139 14
l103 0 -29 -36z m4483 17 c52 -25 126 -90 103 -91 -9 0 -29 5 -43 10 -15 6
-73 15 -128 21 -86 10 -109 16 -144 41 -24 16 -43 31 -43 33 0 3 48 5 108 5
84 0 116 -4 147 -19z m-143 -121 c10 -14 18 -30 18 -36 0 -26 -289 -140 -500
-197 -303 -83 -706 -145 -1150 -177 -379 -28 -999 -23 -1320 11 -500 52 -1022
185 -1323 336 -48 24 -90 50 -94 58 -5 14 14 75 23 75 2 0 20 -18 40 -40 122
-135 581 -279 1084 -339 537 -65 1276 -58 2015 20 481 50 803 122 1030 228 88
41 105 59 105 112 l0 32 28 -29 c15 -16 35 -40 44 -54z m-4406 44 c16 -4 19
-12 16 -34 -3 -21 1 -31 17 -39 17 -10 21 -21 21 -63 l0 -50 -57 6 c-300 35
-373 47 -373 65 0 4 12 19 28 33 33 32 145 67 245 78 39 4 74 8 77 9 3 0 14
-2 26 -5z m4519 -9 c88 -9 191 -45 221 -76 19 -20 25 -32 18 -39 -9 -9 -320
-60 -366 -60 -13 0 -18 8 -18 25 0 19 9 29 35 42 40 19 43 35 15 81 -11 18
-20 34 -20 37 0 2 15 2 33 0 17 -2 55 -7 82 -10z m-4344 -139 c242 -114 662
-229 1044 -285 559 -82 1371 -80 2021 4 420 55 814 151 1058 259 36 16 56 21
56 13 0 -55 -152 -1619 -161 -1650 -46 -172 -172 -312 -347 -387 -196 -83
-582 -195 -842 -245 -269 -50 -429 -66 -736 -72 -308 -6 -481 3 -726 37 -381
53 -816 171 -1058 287 -156 75 -255 192 -299 354 -18 64 -27 190 -66 879 -47
834 -47 850 -41 850 2 0 46 -20 97 -44z m-719 -101 c184 -49 458 -95 564 -95
l41 0 7 -61 c9 -87 8 -199 -2 -199 -16 0 -49 45 -74 101 -29 65 -43 72 -167
89 -46 6 -123 24 -171 40 -90 29 -283 121 -295 140 -8 13 -11 14 97 -15z
m5572 14 c-13 -21 -248 -128 -339 -154 -49 -14 -124 -31 -165 -37 -86 -13
-111 -30 -130 -88 -12 -37 -45 -78 -54 -69 -5 5 14 222 20 228 2 2 57 10 121
17 129 15 311 51 443 88 100 28 113 30 104 15z"/>
<path d="M3640 4110 c0 -6 -31 -40 -69 -77 -57 -54 -72 -74 -79 -110 -6 -24
-8 -52 -6 -61 1 -9 6 -34 9 -56 10 -61 20 -32 16 48 -3 90 8 115 78 174 56 48
77 77 61 87 -5 3 -10 1 -10 -5z"/>
<path d="M3486 4059 c-21 -24 -44 -57 -53 -73 -15 -29 -11 -76 7 -76 5 0 7 7
4 15 -11 27 6 65 47 110 23 24 39 50 37 56 -2 7 -21 -8 -42 -32z"/>
<path d="M4300 3630 c0 -5 10 -12 23 -15 12 -2 76 -16 142 -31 144 -31 290
-79 430 -140 105 -46 159 -84 119 -84 -10 0 -73 23 -139 51 -195 82 -482 173
-450 142 6 -6 64 -26 130 -46 67 -20 188 -63 270 -97 173 -71 185 -75 222 -65
l28 7 -38 33 c-75 65 -353 171 -572 219 -66 15 -130 29 -142 31 -13 3 -23 1
-23 -5z"/>
<path d="M1624 3424 c-151 -90 -164 -100 -164 -129 0 -12 8 -29 18 -37 49 -44
305 -148 363 -148 26 0 28 2 19 19 -5 11 -36 31 -67 46 -32 15 -91 45 -131 68
-96 54 -94 65 20 130 48 28 85 54 82 58 -6 11 -184 -92 -196 -114 -15 -30 22
-60 150 -124 63 -32 110 -59 105 -60 -16 -6 -181 56 -265 98 -117 59 -111 70
95 189 59 34 107 66 107 71 0 5 -1 9 -3 9 -2 0 -62 -34 -133 -76z"/>
<path d="M5130 3331 c0 -5 8 -12 19 -16 26 -8 59 -45 40 -45 -8 1 -25 7 -39
15 -14 8 -31 14 -39 15 -26 0 7 -26 49 -40 70 -23 83 20 18 60 -36 22 -48 25
-48 11z"/>
<path d="M1914 3129 c-5 -8 30 -19 121 -39 70 -15 80 -19 69 -30 -6 -6 -36 -3
-79 6 -124 28 -121 27 -110 15 6 -6 48 -20 93 -32 62 -15 86 -18 102 -9 22 12
26 35 8 46 -22 14 -199 51 -204 43z"/>
<path d="M5356 2778 c-2 -7 -9 -101 -15 -208 -7 -107 -23 -307 -37 -445 -26
-259 -35 -295 -78 -303 -21 -4 -21 65 -1 273 17 176 18 202 6 189 -5 -5 -16
-88 -25 -184 -26 -297 -26 -280 -1 -292 29 -13 60 3 79 40 20 39 67 491 81
777 4 66 8 130 11 143 5 23 -14 32 -20 10z"/>
<path d="M5211 2540 c-16 -146 -15 -180 7 -180 37 0 45 18 57 117 7 54 9 102
4 107 -9 10 -16 -25 -27 -128 -5 -46 -12 -71 -21 -74 -15 -5 -13 45 5 202 4
35 3 56 -3 56 -6 0 -15 -45 -22 -100z"/>
<path d="M1482 2029 c3 -242 9 -443 12 -446 3 -4 8 -4 11 -2 9 10 -8 889 -18
889 -7 0 -8 -153 -5 -441z"/>
<path d="M1577 2263 c-11 -11 -8 -153 3 -153 6 0 10 33 10 80 0 80 -1 86 -13
73z"/>
<path d="M1580 1671 c0 -227 4 -351 10 -351 6 0 10 121 10 344 0 219 -4 347
-10 351 -7 4 -10 -113 -10 -344z"/>
<path d="M4220 1029 c-495 -114 -1088 -128 -1611 -39 -134 23 -129 23 -129 11
0 -17 331 -65 552 -81 363 -25 736 -1 1103 71 180 35 225 47 225 59 0 12 12
14 -140 -21z"/>
<path d="M4455 974 c-101 -28 -395 -84 -560 -106 -150 -20 -212 -22 -540 -22
-408 0 -546 12 -858 74 -157 32 -187 36 -171 21 13 -13 300 -67 484 -92 200
-26 660 -37 876 -20 175 14 398 44 533 72 176 36 311 71 311 80 0 12 -14 10
-75 -7z"/>
<path d="M7567 3880 c-16 -5 -76 -55 -135 -112 -59 -57 -129 -121 -157 -143
-27 -22 -167 -157 -310 -300 -287 -285 -349 -364 -413 -524 l-35 -86 11 -108
c9 -88 16 -113 34 -136 27 -32 95 -50 177 -46 l55 3 46 79 c25 43 58 110 74
150 17 44 34 74 45 78 17 5 74 68 203 224 29 35 61 69 72 75 10 6 30 21 43 33
14 12 28 21 32 20 10 -3 171 121 228 176 33 32 56 47 64 42 7 -5 10 -4 5 3 -4
6 5 18 19 28 13 9 22 20 19 25 -13 22 30 19 66 -5 22 -14 48 -26 57 -26 10 -1
43 -14 73 -30 30 -17 64 -30 74 -30 29 0 126 -32 126 -42 0 -4 8 -8 17 -8 36
0 438 -180 455 -205 4 -5 10 -6 14 -2 4 4 13 2 21 -5 7 -6 60 -32 117 -58 57
-26 144 -70 193 -98 144 -82 253 -79 326 8 15 18 47 42 70 54 31 15 49 34 67
69 14 27 33 53 42 58 10 5 22 28 28 51 11 40 11 42 -27 80 -82 84 -205 156
-432 254 -69 30 -130 60 -136 68 -5 7 -48 25 -95 41 -47 16 -139 51 -205 78
-66 28 -140 53 -165 58 -25 4 -94 16 -155 28 -60 11 -139 23 -175 25 -128 10
-248 51 -263 90 -3 7 -26 23 -51 35 -25 11 -46 26 -46 31 0 12 -34 12 -73 0z"/>
<path d="M18404 3816 c-84 -42 -154 -100 -154 -127 0 -11 -4 -17 -10 -14 -5 3
-10 0 -10 -8 0 -10 -7 -13 -21 -10 -24 7 -59 -27 -59 -57 0 -11 -6 -20 -14
-20 -8 0 -17 -9 -21 -20 -3 -11 -17 -28 -31 -39 -13 -10 -24 -24 -24 -29 0
-15 -57 -99 -99 -148 -67 -75 -101 -116 -101 -119 0 -2 -23 -40 -51 -86 -28
-45 -56 -96 -62 -113 -5 -17 -28 -64 -49 -105 -21 -40 -38 -79 -38 -87 0 -7
-18 -55 -41 -107 -30 -70 -46 -97 -62 -101 -20 -6 -20 -7 -5 -16 13 -8 15 -19
11 -48 -9 -58 -21 -84 -35 -76 -10 6 -10 4 0 -8 14 -17 7 -68 -10 -68 -5 0 -6
-4 -3 -10 3 -5 -1 -20 -9 -32 -19 -26 -20 -86 -5 -178 13 -81 46 -161 58 -141
7 11 14 10 36 -8 36 -28 41 -27 49 9 3 17 12 30 20 30 7 0 44 -16 82 -35 38
-19 72 -31 77 -26 4 4 17 43 29 87 11 43 27 86 34 94 7 9 19 40 25 70 6 30 16
63 21 73 16 30 26 10 17 -35 -4 -24 -8 -63 -9 -89 0 -25 -5 -50 -12 -57 -6 -6
-9 -14 -6 -18 11 -11 58 94 58 129 0 18 11 57 25 85 14 29 25 57 25 63 0 6 8
23 19 37 10 15 32 55 50 89 17 34 35 64 41 68 5 3 10 15 10 26 0 38 203 347
321 490 58 69 124 120 145 112 8 -3 25 -2 39 1 21 5 25 12 25 46 0 34 4 42 31
55 31 16 83 13 94 -6 4 -5 17 -9 30 -9 13 0 28 -6 32 -12 4 -7 60 -39 123 -71
63 -32 160 -91 215 -132 55 -41 116 -83 135 -93 43 -22 178 -122 205 -152 11
-12 41 -38 68 -57 42 -31 57 -36 110 -38 34 -1 69 -6 79 -9 23 -10 71 17 106
60 30 36 30 37 16 83 -8 25 -19 70 -23 100 -6 43 -14 59 -40 80 -17 14 -31 31
-31 37 0 6 -10 16 -23 23 -13 7 -31 26 -41 42 -9 16 -21 29 -25 29 -4 0 -31
22 -60 50 -258 248 -615 458 -831 491 -66 9 -110 19 -130 27 -8 3 -22 6 -30 7
-26 1 -164 36 -182 46 -25 13 -28 12 -104 -25z m-235 -992 c-18 -33 -41 -70
-51 -83 -10 -13 -18 -33 -18 -44 0 -27 -57 -142 -82 -164 -20 -18 -20 -17 0
22 12 22 46 93 76 158 54 116 94 183 103 174 2 -3 -10 -31 -28 -63z"/>
<path d="M13277 3713 c-6 -16 -26 -46 -42 -69 -17 -22 -46 -81 -64 -131 -18
-51 -45 -111 -61 -135 -16 -24 -30 -48 -30 -54 0 -18 -64 -44 -108 -44 -22 0
-95 -16 -162 -35 -101 -29 -136 -45 -212 -94 -49 -33 -93 -61 -98 -63 -12 -5
-70 -125 -70 -146 0 -32 40 -58 175 -117 200 -88 194 -86 248 -63 26 12 56 18
69 15 23 -6 23 -9 23 -144 0 -76 4 -194 9 -263 7 -113 11 -132 43 -197 19 -40
53 -93 75 -118 37 -42 43 -45 89 -45 31 0 66 8 94 23 41 20 44 24 39 52 -4 17
-12 41 -19 55 -12 23 -10 27 29 61 40 35 42 41 41 88 -1 28 -4 54 -8 57 -4 4
-7 86 -7 183 1 127 5 187 15 216 8 22 15 62 15 88 0 27 4 56 10 66 14 27 114
67 228 91 57 12 124 30 150 41 25 11 52 17 60 14 7 -3 19 -2 25 2 7 5 21 9 32
9 26 2 280 78 339 102 24 9 62 34 85 55 40 37 41 38 37 99 -2 47 -7 65 -22 74
-18 12 -246 54 -291 54 -12 0 -29 7 -38 17 -12 11 -19 13 -24 5 -5 -8 -65 -12
-181 -14 -157 -3 -175 -5 -174 -20 2 -27 -96 -53 -110 -30 -3 5 3 24 13 43 23
43 41 126 41 189 0 48 0 49 -54 79 -46 27 -63 31 -125 31 -68 0 -72 -1 -84
-27z"/>
<path d="M20775 3695 c-101 -34 -188 -75 -372 -173 -93 -50 -163 -93 -163
-101 0 -8 -8 -24 -19 -35 -11 -13 -23 -48 -29 -91 -9 -64 -8 -72 11 -92 11
-13 30 -26 41 -29 11 -4 45 -25 74 -46 83 -61 156 -92 200 -83 21 4 48 8 62 9
14 1 54 16 88 34 35 18 77 35 93 37 15 2 33 6 38 9 5 4 31 9 57 12 46 5 191
71 227 102 15 13 17 13 17 0 0 -12 10 -14 53 -10 63 5 100 27 150 86 33 40 37
49 31 84 -3 22 -1 48 5 59 8 17 5 25 -19 48 -17 16 -32 36 -35 46 -6 19 -154
121 -200 139 -15 6 -76 12 -134 15 -92 3 -115 1 -176 -20z"/>
<path d="M10585 3630 c-213 -27 -363 -63 -380 -91 -11 -16 -44 -9 -50 11 -6
20 -15 23 -87 35 l-36 6 -73 -108 c-40 -59 -89 -145 -111 -191 -77 -167 -177
-506 -183 -620 -1 -37 -17 -191 -35 -342 -32 -272 -32 -277 -21 -465 15 -244
23 -297 66 -441 63 -208 81 -250 128 -284 59 -43 81 -47 141 -21 28 13 92 31
141 42 50 10 104 24 120 30 17 6 66 15 110 20 180 21 232 28 265 39 19 5 76
17 125 26 50 8 122 24 161 35 50 14 79 17 96 10 30 -11 137 6 161 27 11 10 17
11 17 3 0 -8 12 -9 38 -5 22 3 64 1 95 -6 49 -10 59 -9 73 4 20 20 44 21 44 1
0 -20 59 -20 66 -1 7 18 51 26 168 32 106 6 200 -9 273 -42 67 -31 100 -28
144 16 56 56 117 101 123 91 3 -5 20 -14 37 -20 l32 -11 -6 45 c-7 46 8 75 39
75 19 0 18 9 -7 64 -11 25 -33 108 -50 184 -16 75 -34 151 -40 167 -6 17 -13
44 -15 60 -2 17 -10 66 -18 110 -8 44 -20 109 -26 144 -6 35 -26 107 -44 160
-19 53 -36 111 -40 129 -3 19 -15 45 -26 59 -11 14 -20 38 -20 53 0 19 -7 30
-26 39 -23 10 -26 16 -20 43 5 25 -2 43 -36 97 -23 36 -76 138 -118 226 -84
176 -157 275 -237 321 -23 14 -43 30 -43 35 0 5 -7 9 -16 9 -9 0 -28 8 -42 19
-75 52 -316 151 -376 153 -11 1 -47 9 -78 20 -46 14 -86 18 -200 17 -79 -1
-170 -5 -203 -9z m439 -476 c94 -24 104 -29 144 -73 23 -25 54 -66 68 -91 15
-25 42 -70 60 -102 19 -31 34 -59 34 -62 0 -3 -46 -6 -103 -6 -57 0 -107 -4
-112 -9 -6 -5 -59 -12 -119 -15 -60 -4 -130 -13 -155 -21 -25 -8 -91 -26 -146
-41 -55 -14 -125 -33 -155 -42 -30 -9 -61 -15 -68 -14 -7 2 -26 -6 -41 -18
-16 -11 -43 -23 -60 -26 -17 -4 -34 -11 -37 -15 -3 -5 -16 -9 -29 -9 -14 0
-61 -13 -105 -29 -69 -26 -82 -28 -87 -15 -13 36 19 274 37 274 5 0 14 19 21
43 6 23 19 56 30 73 10 17 19 47 19 65 0 45 4 49 80 87 61 30 71 32 165 31 55
-1 177 8 270 19 94 11 174 20 179 21 5 1 55 -11 110 -25z m439 -865 c70 -12
107 -30 107 -54 0 -7 27 -97 59 -201 33 -104 58 -190 57 -192 -2 -1 -39 -5
-82 -7 -43 -3 -104 -10 -134 -15 -70 -12 -296 -37 -420 -45 -70 -5 -171 -26
-385 -81 -159 -41 -306 -82 -325 -90 -28 -13 -198 -74 -206 -74 -9 0 -18 153
-18 327 -1 117 -1 213 0 213 0 0 83 18 185 40 108 24 187 46 191 54 5 8 17 12
28 9 25 -7 155 26 193 48 19 11 41 15 67 12 37 -5 215 31 233 47 5 5 25 6 45
3 21 -2 48 0 62 6 34 14 255 14 343 0z"/>
<path d="M22525 3623 c-57 -11 -134 -39 -161 -60 -17 -12 -34 -23 -39 -23 -10
0 -87 -70 -100 -91 -5 -9 -20 -34 -32 -56 -12 -22 -33 -54 -47 -70 -36 -42
-106 -315 -88 -344 7 -10 13 -38 13 -61 1 -24 5 -47 9 -53 3 -5 17 -38 30 -72
14 -35 30 -63 36 -63 6 0 34 -22 61 -48 54 -51 116 -87 134 -77 5 4 21 -1 35
-10 31 -20 54 -13 99 28 39 36 55 73 55 123 0 36 -57 157 -130 273 -34 54 -40
73 -40 117 0 44 5 59 29 86 15 18 26 38 24 43 -6 18 36 55 62 55 13 0 26 4 29
9 3 4 32 14 65 21 73 15 119 6 236 -49 93 -44 123 -71 175 -161 44 -76 56
-144 41 -239 -19 -115 -54 -164 -191 -261 -121 -86 -215 -229 -227 -345 -3
-30 0 -104 7 -163 17 -142 68 -256 135 -302 24 -16 50 -30 57 -30 16 0 70 54
87 87 12 23 9 152 -4 186 -4 9 -16 17 -26 17 -28 0 -42 45 -36 115 7 68 15 95
29 95 12 0 157 63 200 86 14 8 32 14 40 14 22 0 84 70 111 125 13 28 31 64 40
80 35 66 50 141 55 282 l5 141 -64 139 c-60 131 -68 142 -149 223 -47 47 -101
98 -120 114 -44 35 -140 80 -217 100 -58 15 -190 26 -228 19z"/>
<path d="M15339 3194 c-92 -57 -125 -98 -154 -193 -15 -46 -30 -107 -35 -135
-5 -28 -30 -150 -56 -271 l-46 -220 6 -195 c6 -218 37 -516 66 -629 14 -54 27
-83 51 -107 49 -51 66 -52 101 -10 16 20 35 36 43 36 7 0 37 16 66 36 30 20
70 44 90 55 67 34 72 65 75 429 3 386 11 463 58 565 19 41 43 88 53 103 29 43
22 155 -18 267 -70 200 -120 285 -169 285 -16 0 -39 4 -52 9 -19 7 -35 2 -79
-25z"/>
<path d="M18698 3202 c-35 -20 -49 -36 -57 -63 -17 -55 -10 -181 14 -255 9
-30 -33 -67 -107 -95 -32 -12 -58 -28 -58 -35 0 -8 -8 -14 -18 -14 -11 0 -27
-9 -37 -20 -10 -11 -24 -20 -31 -20 -6 0 -26 -16 -43 -35 -25 -28 -30 -42 -25
-63 4 -15 11 -31 15 -36 5 -6 9 -18 9 -28 0 -9 11 -34 25 -54 29 -42 30 -65
11 -149 -31 -134 -56 -320 -66 -505 -6 -107 -12 -217 -14 -245 -4 -58 12 -185
25 -201 5 -6 7 -13 4 -16 -3 -3 1 -18 10 -34 8 -16 15 -35 15 -43 0 -20 63
-102 115 -149 l45 -42 87 0 c118 0 254 17 304 37 28 11 46 26 55 47 8 17 20
39 27 49 10 15 9 20 -4 30 -9 7 -21 29 -28 49 -7 21 -26 48 -42 62 -25 21 -39
25 -98 24 -39 0 -90 7 -119 16 l-50 17 -11 63 c-8 44 -8 78 -1 112 6 27 13 66
17 87 3 21 9 40 14 42 4 3 24 -6 45 -20 20 -13 61 -32 90 -42 52 -16 56 -16
126 6 40 12 91 31 113 42 22 10 54 19 72 19 17 0 44 5 59 10 15 6 59 12 98 14
42 1 84 9 103 19 18 9 38 17 45 17 8 0 30 19 50 43 19 23 56 58 81 77 26 19
47 40 47 46 0 6 12 29 27 50 25 36 27 46 26 139 0 55 -8 147 -17 205 -15 100
-19 109 -71 185 -69 100 -220 258 -243 253 -4 0 -23 6 -42 14 -19 9 -55 19
-80 23 -25 4 -49 11 -55 15 -5 4 -34 11 -63 15 -63 8 -103 41 -73 60 5 3 8 39
5 80 -3 59 -9 86 -30 120 -32 56 -75 88 -106 80 -13 -3 -43 1 -67 10 -57 20
-67 19 -123 -13z m424 -701 c34 -1 55 -8 74 -25 l28 -24 -29 -5 c-28 -5 -134
-16 -230 -22 -22 -2 -72 -6 -111 -10 l-72 -8 -7 33 c-4 17 -3 36 1 40 23 22
123 28 346 21z m193 -357 c16 -7 45 -54 45 -75 0 -8 -21 -10 -78 -5 -86 8
-214 -5 -369 -35 -57 -11 -107 -18 -112 -14 -5 3 -12 1 -16 -5 -8 -12 -25 -13
-25 -1 0 18 171 81 220 81 24 0 82 11 215 43 71 17 97 19 120 11z"/>
<path d="M16595 2998 c-22 -6 -139 -39 -260 -73 -121 -35 -235 -66 -253 -70
-40 -8 -113 -48 -137 -75 -16 -17 -17 -31 -11 -112 6 -94 21 -128 55 -128 9 0
21 -8 28 -18 6 -11 37 -32 70 -47 108 -53 260 -36 542 63 l136 47 200 0 c110
0 205 3 211 7 6 4 14 36 17 70 2 35 11 77 17 93 19 46 20 66 3 113 -12 32 -26
48 -52 61 -50 25 -155 58 -225 70 -74 14 -287 12 -341 -1z"/>
<path d="M7745 2895 c-55 -7 -142 -30 -225 -60 -74 -26 -175 -57 -224 -70
-115 -28 -140 -53 -134 -131 4 -50 7 -55 91 -137 l86 -85 65 -7 c85 -9 147 0
183 28 24 19 41 22 138 24 60 1 133 5 160 8 28 4 95 6 150 5 95 -1 103 1 142
27 52 36 123 100 123 112 0 5 4 11 10 13 5 2 3 31 -6 73 -17 74 -25 85 -114
148 -83 58 -254 78 -445 52z"/>
<path d="M14257 2861 c-42 -45 -46 -53 -42 -91 2 -23 11 -52 19 -65 20 -31 73
-70 118 -90 20 -8 39 -19 43 -25 3 -5 31 -21 61 -35 30 -14 54 -29 54 -35 0
-5 8 -10 19 -10 10 0 35 -12 57 -26 33 -23 46 -26 96 -22 40 3 67 11 86 26 15
12 37 26 49 31 16 8 25 27 37 80 21 92 20 98 -9 105 -14 4 -35 22 -48 41 -12
19 -31 38 -42 41 -11 4 -24 13 -30 20 -5 7 -60 33 -122 58 -105 43 -117 46
-206 46 l-94 0 -46 -49z"/>
<path d="M20677 2675 c-31 -7 -59 -9 -62 -5 -6 9 -142 -14 -209 -36 -76 -24
-119 -56 -146 -108 -14 -25 -30 -46 -36 -46 -17 0 -21 -28 -14 -92 7 -64 35
-102 120 -161 50 -35 33 -33 425 -47 138 -5 261 -11 275 -14 93 -16 188 -40
211 -52 34 -17 114 -146 124 -199 5 -22 9 -47 11 -55 5 -26 45 -134 54 -145 4
-5 11 -53 15 -105 7 -93 34 -192 83 -303 45 -101 157 -183 196 -144 9 8 29 18
44 22 47 10 99 61 134 133 l33 67 -1 160 c-2 182 -6 224 -24 235 -7 4 -10 13
-6 19 4 6 -5 30 -19 55 -14 24 -23 51 -19 59 8 21 -35 149 -52 160 -8 4 -14
19 -14 32 0 13 -5 37 -12 52 -16 38 -140 213 -169 239 -54 47 -274 162 -344
180 -27 7 -72 21 -100 32 -74 30 -148 43 -265 47 -80 3 -107 7 -116 19 -13 19
-37 19 -117 1z"/>
<path d="M13768 2618 c-23 -25 -38 -52 -39 -67 0 -14 -3 -52 -5 -84 -6 -69 26
-181 60 -210 17 -15 18 -20 7 -24 -8 -3 -26 -17 -40 -32 -14 -14 -51 -38 -81
-54 -30 -16 -92 -54 -136 -83 -82 -55 -82 -55 -88 -107 -4 -29 -18 -98 -32
-154 -19 -77 -22 -107 -14 -122 5 -11 10 -33 10 -49 0 -64 30 -131 86 -191 89
-97 173 -147 282 -171 85 -19 95 -19 123 -5 16 9 34 13 38 10 14 -8 63 14 79
36 7 11 38 34 68 50 30 17 63 44 75 60 11 16 28 29 37 30 20 0 66 55 53 63 -5
3 -7 51 -4 108 5 92 3 111 -20 178 -18 53 -22 79 -15 87 6 7 8 22 5 33 -5 18
0 20 56 20 146 -1 262 -17 312 -42 53 -27 98 -29 164 -7 49 16 121 78 121 104
0 12 -26 45 -62 81 -51 49 -87 72 -188 120 -137 65 -130 63 -442 80 l-118 6
-21 67 c-11 36 -24 103 -28 147 -3 45 -12 89 -20 97 -25 31 -103 67 -144 67
-34 0 -46 -6 -79 -42z m159 -860 c31 -34 37 -84 18 -158 -24 -92 -39 -115 -86
-134 -41 -16 -42 -16 -74 8 -120 92 -163 177 -112 223 85 78 211 108 254 61z"/>
<path d="M7520 2287 c-25 -4 -61 -9 -80 -11 -126 -11 -268 -49 -288 -77 -6
-10 -25 -20 -41 -24 -85 -19 -90 -130 -8 -198 23 -19 56 -48 72 -64 60 -55
113 -93 131 -93 11 0 33 -7 49 -16 33 -18 111 -42 164 -50 39 -7 179 14 198
29 7 5 119 10 260 11 l248 1 -3 -70 c-6 -109 -26 -177 -81 -274 -71 -124 -102
-231 -66 -231 8 0 21 -15 29 -33 13 -32 59 -77 78 -77 5 0 43 23 85 51 72 49
77 55 114 134 29 63 49 92 85 121 67 55 110 116 135 192 12 37 25 69 28 72 15
13 45 110 45 150 1 65 -34 129 -123 219 -64 67 -92 87 -177 130 -56 27 -104
48 -107 45 -3 -3 -18 1 -34 9 -87 44 -567 80 -713 54z"/>
<path d="M16788 1985 c-2 -2 -168 -7 -368 -10 -384 -6 -401 -8 -417 -53 -3 -9
-16 -26 -28 -37 -20 -18 -21 -27 -16 -77 6 -53 10 -62 78 -136 67 -74 76 -80
135 -95 169 -42 277 -50 651 -45 406 6 397 4 397 83 0 37 4 44 37 66 34 22 38
28 38 69 0 49 -25 96 -69 131 -13 11 -62 29 -107 40 -46 11 -91 25 -101 30
-34 18 -218 46 -230 34z"/>
<path d="M19680 1835 c-25 -14 -53 -25 -63 -25 -26 0 -237 -109 -265 -137 -13
-13 -29 -23 -36 -23 -6 0 -21 -6 -31 -14 -11 -8 -24 -12 -30 -9 -28 10 -91
-116 -100 -201 -7 -60 -5 -68 24 -118 52 -89 86 -110 277 -166 93 -28 216 -62
274 -77 58 -14 119 -30 137 -34 24 -7 39 -4 61 9 35 22 66 91 57 130 -9 41
-126 155 -162 157 -49 3 -156 23 -210 38 -81 24 -73 45 34 96 105 52 167 109
165 153 0 17 -1 49 -2 71 0 22 -6 66 -12 97 -9 43 -17 59 -35 67 -31 14 -30
14 -83 -14z"/>
<path d="M22728 1739 c-10 -5 -18 -14 -18 -18 0 -5 -13 -23 -29 -40 -46 -49
-74 -134 -67 -201 3 -30 7 -62 7 -70 1 -19 14 -51 43 -110 18 -36 30 -47 59
-54 35 -9 38 -7 92 47 32 32 62 54 70 51 21 -8 53 13 71 48 34 65 -3 209 -73
286 -16 17 -34 32 -39 32 -5 0 -17 9 -27 20 -18 22 -61 26 -89 9z"/>
</g>
</svg>
